<svg xmlns="http://www.w3.org/2000/svg" viewBox="0 0 64 64"><path fill="#231f20" d="M32,2A30,30,0,1,0,62,32,30.034,30.034,0,0,0,32,2Zm0,58A28,28,0,1,1,60,32,28.032,28.032,0,0,1,32,60Z"/><path fill="#231f20" d="M46,15H18a3,3,0,0,0-3,3V46a3,3,0,0,0,3,3H46a3,3,0,0,0,3-3V18A3,3,0,0,0,46,15ZM18,17H46a1,1,0,0,1,1,1v3H17V18A1,1,0,0,1,18,17ZM46,47H18a1,1,0,0,1-1-1V23H47V46A1,1,0,0,1,46,47Z"/><rect width="2" height="2" x="19" y="18" fill="#231f20"/><rect width="2" height="2" x="23" y="18" fill="#231f20"/><rect width="2" height="2" x="27" y="18" fill="#231f20"/><path fill="#231f20" d="M24 25H20a1 1 0 0 0-1 1v4a1 1 0 0 0 1 1h4a1 1 0 0 0 1-1V26A1 1 0 0 0 24 25zm-1 4H21V27h2zM24 32H20a1 1 0 0 0-1 1v4a1 1 0 0 0 1 1h4a1 1 0 0 0 1-1V33A1 1 0 0 0 24 32zm-1 4H21V34h2zM24 39H20a1 1 0 0 0-1 1v4a1 1 0 0 0 1 1h4a1 1 0 0 0 1-1V40A1 1 0 0 0 24 39zm-1 4H21V41h2z"/><rect width="16" height="2" x="28" y="27" fill="#231f20"/><rect width="17" height="2" x="27" y="34" fill="#231f20"/><rect width="17" height="2" x="27" y="41" fill="#231f20"/></svg>